<mxfile host="Electron" agent="Mozilla/5.0 (Windows NT 10.0; Win64; x64) AppleWebKit/537.36 (KHTML, like Gecko) draw.io/27.0.9 Chrome/134.0.6998.205 Electron/35.4.0 Safari/537.36" version="27.0.9">
  <diagram name="Page-1" id="TzXJQc_jaYf3yBMzOcSM">
    <mxGraphModel dx="1747" dy="1240" grid="1" gridSize="10" guides="1" tooltips="1" connect="1" arrows="1" fold="1" page="1" pageScale="1" pageWidth="1169" pageHeight="827" math="0" shadow="0">
      <root>
        <mxCell id="0" />
        <mxCell id="1" parent="0" />
        <mxCell id="2i9PlkYGRrO_FzR_4Jyz-9" value="" style="edgeStyle=orthogonalEdgeStyle;rounded=0;orthogonalLoop=1;jettySize=auto;html=1;" parent="1" source="2i9PlkYGRrO_FzR_4Jyz-1" target="2i9PlkYGRrO_FzR_4Jyz-8" edge="1">
          <mxGeometry relative="1" as="geometry" />
        </mxCell>
        <mxCell id="2i9PlkYGRrO_FzR_4Jyz-1" value="Start" style="ellipse;whiteSpace=wrap;html=1;fillColor=#00FF00;" parent="1" vertex="1">
          <mxGeometry x="260" y="-47" width="120" height="80" as="geometry" />
        </mxCell>
        <mxCell id="2i9PlkYGRrO_FzR_4Jyz-2" value="&lt;font style=&quot;color: rgb(255, 0, 0);&quot;&gt;#8&lt;/font&gt;&lt;div&gt;&lt;div&gt;&lt;font color=&quot;#ff0000&quot;&gt;&amp;nbsp;This flowchart for a program asks the user&lt;/font&gt;&lt;/div&gt;&lt;div&gt;&lt;font color=&quot;#ff0000&quot;&gt;&amp;nbsp;to enter a mark, then checks if it is&lt;/font&gt;&lt;/div&gt;&lt;div&gt;&lt;font color=&quot;#ff0000&quot;&gt;&amp;nbsp;a passing grade (50 or more) or a&amp;nbsp;&lt;/font&gt;&lt;/div&gt;&lt;div&gt;&lt;font color=&quot;#ff0000&quot;&gt;failing grade (less than 50).&lt;/font&gt;&lt;/div&gt;&lt;div&gt;&lt;br&gt;&lt;/div&gt;&lt;div&gt;&lt;font style=&quot;color: rgb(255, 0, 0);&quot;&gt;&amp;nbsp;&amp;nbsp;&lt;/font&gt;&lt;/div&gt;&lt;/div&gt;" style="text;html=1;align=left;verticalAlign=middle;resizable=0;points=[];autosize=1;strokeColor=none;fillColor=none;" parent="1" vertex="1">
          <mxGeometry x="-60" y="48" width="250" height="110" as="geometry" />
        </mxCell>
        <mxCell id="2i9PlkYGRrO_FzR_4Jyz-3" value="End" style="ellipse;whiteSpace=wrap;html=1;fillColor=#FF3333;" parent="1" vertex="1">
          <mxGeometry x="260" y="310" width="120" height="80" as="geometry" />
        </mxCell>
        <mxCell id="2i9PlkYGRrO_FzR_4Jyz-14" value="" style="edgeStyle=orthogonalEdgeStyle;rounded=0;orthogonalLoop=1;jettySize=auto;html=1;" parent="1" source="2i9PlkYGRrO_FzR_4Jyz-4" target="2i9PlkYGRrO_FzR_4Jyz-3" edge="1">
          <mxGeometry relative="1" as="geometry" />
        </mxCell>
        <mxCell id="2i9PlkYGRrO_FzR_4Jyz-4" value="Print: &quot;Fail&quot;" style="shape=parallelogram;perimeter=parallelogramPerimeter;whiteSpace=wrap;html=1;fixedSize=1;fillColor=#3333FF;" parent="1" vertex="1">
          <mxGeometry x="490" y="320" width="120" height="60" as="geometry" />
        </mxCell>
        <mxCell id="2i9PlkYGRrO_FzR_4Jyz-15" value="" style="edgeStyle=orthogonalEdgeStyle;rounded=0;orthogonalLoop=1;jettySize=auto;html=1;" parent="1" source="2i9PlkYGRrO_FzR_4Jyz-5" target="2i9PlkYGRrO_FzR_4Jyz-3" edge="1">
          <mxGeometry relative="1" as="geometry" />
        </mxCell>
        <mxCell id="2i9PlkYGRrO_FzR_4Jyz-5" value="Print:&quot;PASS&quot;" style="shape=parallelogram;perimeter=parallelogramPerimeter;whiteSpace=wrap;html=1;fixedSize=1;fillColor=#3333FF;" parent="1" vertex="1">
          <mxGeometry x="260" y="200" width="120" height="60" as="geometry" />
        </mxCell>
        <mxCell id="2i9PlkYGRrO_FzR_4Jyz-13" value="" style="edgeStyle=orthogonalEdgeStyle;rounded=0;orthogonalLoop=1;jettySize=auto;html=1;exitX=1;exitY=0.5;exitDx=0;exitDy=0;" parent="1" source="2i9PlkYGRrO_FzR_4Jyz-7" target="2i9PlkYGRrO_FzR_4Jyz-4" edge="1">
          <mxGeometry relative="1" as="geometry" />
        </mxCell>
        <mxCell id="2i9PlkYGRrO_FzR_4Jyz-16" style="edgeStyle=orthogonalEdgeStyle;rounded=0;orthogonalLoop=1;jettySize=auto;html=1;entryX=1;entryY=0.75;entryDx=0;entryDy=0;" parent="1" source="2i9PlkYGRrO_FzR_4Jyz-7" target="2i9PlkYGRrO_FzR_4Jyz-5" edge="1">
          <mxGeometry relative="1" as="geometry">
            <Array as="points">
              <mxPoint x="470" y="242" />
            </Array>
          </mxGeometry>
        </mxCell>
        <mxCell id="2i9PlkYGRrO_FzR_4Jyz-7" value="&lt;font style=&quot;color: rgb(0, 0, 0);&quot;&gt;mark &amp;gt;= 50&lt;/font&gt;" style="rhombus;whiteSpace=wrap;html=1;fillColor=#EDFF3F;" parent="1" vertex="1">
          <mxGeometry x="430" y="63" width="80" height="80" as="geometry" />
        </mxCell>
        <mxCell id="2i9PlkYGRrO_FzR_4Jyz-10" value="" style="edgeStyle=orthogonalEdgeStyle;rounded=0;orthogonalLoop=1;jettySize=auto;html=1;" parent="1" source="2i9PlkYGRrO_FzR_4Jyz-8" edge="1">
          <mxGeometry relative="1" as="geometry">
            <mxPoint x="430" y="103" as="targetPoint" />
          </mxGeometry>
        </mxCell>
        <mxCell id="2i9PlkYGRrO_FzR_4Jyz-8" value="Read: mark&amp;nbsp;" style="shape=parallelogram;perimeter=parallelogramPerimeter;whiteSpace=wrap;html=1;fixedSize=1;fillColor=#B266FF;" parent="1" vertex="1">
          <mxGeometry x="260" y="73" width="120" height="60" as="geometry" />
        </mxCell>
        <mxCell id="2i9PlkYGRrO_FzR_4Jyz-17" value="&lt;font style=&quot;font-size: 18px;&quot;&gt;Yas&lt;/font&gt;&lt;div&gt;&lt;br&gt;&lt;/div&gt;" style="text;html=1;align=center;verticalAlign=middle;resizable=0;points=[];autosize=1;strokeColor=none;fillColor=none;rotation=0;" parent="1" vertex="1">
          <mxGeometry x="420" y="180" width="50" height="50" as="geometry" />
        </mxCell>
        <mxCell id="2i9PlkYGRrO_FzR_4Jyz-18" value="&lt;font style=&quot;font-size: 15px;&quot;&gt;No&lt;/font&gt;" style="text;html=1;align=center;verticalAlign=middle;resizable=0;points=[];autosize=1;strokeColor=none;fillColor=none;" parent="1" vertex="1">
          <mxGeometry x="520" y="73" width="40" height="30" as="geometry" />
        </mxCell>
      </root>
    </mxGraphModel>
  </diagram>
</mxfile>
